<svg width="56" height="56" viewBox="0 0 56 56" fill="none" xmlns="http://www.w3.org/2000/svg">
<rect width="56" height="56" rx="8.4" fill="url(#paint0_linear_1_62)"/>
<rect x="1.05" y="1.05" width="53.9" height="53.9" rx="7.35" stroke="white" stroke-opacity="0.15" stroke-width="2.1"/>
<g filter="url(#filter0_d_1_62)">
<path d="M44.4473 20.4623C44.0695 19.0181 42.9361 17.8847 41.5041 17.5008C38.9142 16.8 28.5061 16.8 28.5061 16.8C28.5061 16.8 18.098 16.8 15.502 17.5008C14.07 17.8847 12.9427 19.0181 12.5587 20.4623C11.8641 23.0766 11.8641 28.5244 11.8641 28.5244C11.8641 28.5244 11.8641 33.9722 12.5587 36.5864C12.9427 38.0245 14.07 39.1153 15.502 39.4992C18.098 40.2 28.5061 40.2 28.5061 40.2C28.5061 40.2 38.9142 40.2 41.5102 39.4992C42.9422 39.1153 44.0695 38.0245 44.4534 36.5864C45.1481 33.9722 45.1481 28.5244 45.1481 28.5244C45.1481 28.5244 45.1481 23.0766 44.4534 20.4623H44.4473ZM25.0997 33.4725V23.5762L33.7955 28.5244L25.0997 33.4725Z" fill="#F22F21"/>
</g>
<defs>
<filter id="filter0_d_1_62" x="2.28571" y="2.28571" width="51.4286" height="51.4286" filterUnits="userSpaceOnUse" color-interpolation-filters="sRGB">
<feFlood flood-opacity="0" result="BackgroundImageFix"/>
<feColorMatrix in="SourceAlpha" type="matrix" values="0 0 0 0 0 0 0 0 0 0 0 0 0 0 0 0 0 0 127 0" result="hardAlpha"/>
<feOffset/>
<feGaussianBlur stdDeviation="2.85714"/>
<feComposite in2="hardAlpha" operator="out"/>
<feColorMatrix type="matrix" values="0 0 0 0 0 0 0 0 0 0 0 0 0 0 0 0 0 0 0.25 0"/>
<feBlend mode="normal" in2="BackgroundImageFix" result="effect1_dropShadow_1_62"/>
<feBlend mode="normal" in="SourceGraphic" in2="effect1_dropShadow_1_62" result="shape"/>
</filter>
<linearGradient id="paint0_linear_1_62" x1="28" y1="0" x2="28" y2="56" gradientUnits="userSpaceOnUse">
<stop stop-color="#321513"/>
<stop offset="1" stop-color="#210E0C"/>
</linearGradient>
</defs>
</svg>
